<svg xmlns="http://www.w3.org/2000/svg" viewBox="0 0 944 718" fill="currentColor">
  <path d="M323.599 219.67L233.811 448.29H410.156L430.438 503.521H212.639C197.911 536.659 186.864 564.274 179.5 586.366C172.75 608.459 169.374 625.949 169.374 638.836C169.374 657.246 176.125 668.906 189.626 673.815C203.741 678.725 224.606 681.18 252.221 681.18V718H0V681.18C29.4564 678.111 51.8554 671.667 67.1973 661.849C82.5391 651.416 95.4269 633.006 105.859 606.618L293.26 137.05L323.599 219.67ZM636.074 537.579C648.961 568.876 660.008 593.73 669.213 612.141C678.418 629.937 687.93 643.438 697.749 652.644C707.568 661.849 718.92 668.293 731.808 671.975C745.308 675.657 762.491 678.418 783.356 680.259V718H435.402V680.259C464.859 679.031 486.031 675.963 498.918 671.054C511.805 666.144 518.249 656.326 518.249 641.598C518.249 633.006 516.101 621.96 511.806 608.459C507.51 594.344 501.68 577.775 494.315 558.751L473.144 503.521H472.931L452.649 448.29H452.893L445.404 428.562L417.611 352.873L416.792 353.173L365.182 217.19L315.39 81.5967L347.954 0H416.072L636.074 537.579ZM816.442 510.883H782.383C778.701 485.108 773.178 464.55 765.813 449.208C759.063 433.253 748.937 421.286 735.437 413.309C721.936 404.717 703.526 398.887 680.206 395.818C662.09 393.435 640.085 391.977 614.191 391.445L594.928 342.421C642.675 342.259 679.386 339.194 705.06 333.224C731.448 327.087 750.165 315.427 761.211 298.244C772.257 281.061 779.314 255.9 782.383 222.762H816.442V510.883ZM943.473 203.432H904.812C899.902 168.452 891.617 140.53 879.957 119.665C868.911 98.8001 851.728 83.7647 828.408 74.5596C805.702 65.3546 774.405 60.752 734.517 60.752H670.388V59.8311H486.285V65.9189L464 9.20312H932.427L943.473 203.432Z"/>
</svg>
