<svg xmlns="http://www.w3.org/2000/svg" viewBox="0 0 2439 237" fill="currentColor">
  <path d="M1075.77 142.086L1075.26 142.445L1124.3 212.615V237H1084.1L951.199 47.7002H949.999V176.7C949.999 189.9 950.7 199.7 952.1 206.1C953.7 212.3 956.7 216.4 961.1 218.4C965.7 220.4 972.399 221.6 981.199 222V234H892.1V222C901.899 221.6 909.199 220.4 913.999 218.4C918.999 216.4 922.299 212.4 923.899 206.4C925.699 200.4 926.6 191.2 926.6 178.8V58.2002C926.6 46.8002 925.799 38.0996 924.199 32.0996C922.799 26.0998 919.799 21.9 915.199 19.5C910.799 16.9 904.099 15.4 895.1 15V3H978.799L1075.77 142.086ZM2096.96 176.4H2097.17L2121.57 211.307V237H2081.37L1948.46 47.7002H1947.26V176.7C1947.26 189.9 1947.97 199.7 1949.37 206.1C1950.97 212.3 1953.97 216.4 1958.37 218.4C1962.97 220.4 1969.67 221.6 1978.46 222V234H1889.37V222C1899.16 221.6 1906.46 220.4 1911.26 218.4C1916.26 216.4 1919.57 212.4 1921.17 206.4C1922.97 200.4 1923.87 191.2 1923.87 178.8V58.2002C1923.87 46.8002 1923.06 38.0996 1921.46 32.0996C1920.06 26.0998 1917.06 21.9 1912.46 19.5C1908.06 16.9 1901.36 15.4 1892.37 15V3H1976.06L2096.96 176.4ZM2379.09 176.4H2379.28L2403.69 211.336V237H2363.49L2230.59 47.7002H2229.39V176.7C2229.39 189.9 2230.09 199.7 2231.49 206.1C2233.09 212.3 2236.09 216.4 2240.49 218.4C2245.09 220.4 2251.79 221.6 2260.59 222V234H2171.49V222C2181.29 221.6 2188.59 220.4 2193.39 218.4C2198.39 216.4 2201.69 212.4 2203.29 206.4C2205.09 200.4 2205.99 191.2 2205.99 178.8V58.2002C2205.99 46.8002 2205.19 38.0996 2203.59 32.0996C2202.19 26.0998 2199.19 21.9 2194.59 19.5C2190.19 16.9 2183.49 15.4 2174.49 15V3H2258.19L2379.09 176.4ZM105.46 71.5967L76.2002 146.1H133.527L140.137 164.1H69.2998C64.4999 174.899 60.9 183.9 58.5 191.1C56.3 198.3 55.2002 204 55.2002 208.2C55.2002 214.2 57.4001 218 61.7998 219.6C66.3998 221.2 73.2002 222 82.2002 222V234H0V222C9.6 221 16.9004 218.9 21.9004 215.7C26.9003 212.3 31.1001 206.3 34.5 197.7L95.5723 44.6699L105.46 71.5967ZM207.3 175.2C211.5 185.4 215.1 193.5 218.1 199.5C221.1 205.3 224.2 209.7 227.4 212.7C230.6 215.7 234.3 217.8 238.5 219C242.9 220.2 248.5 221.1 255.3 221.7V234H141.9V221.7C151.5 221.3 158.4 220.3 162.6 218.7C166.8 217.1 168.9 213.9 168.9 209.1C168.9 206.3 168.2 202.7 166.8 198.3C165.4 193.7 163.5 188.299 161.1 182.1L154.2 164.1H153.985L147.376 146.1H147.6L118.902 70.4893L102.785 26.5977L113.4 0H135.6L207.3 175.2ZM361.378 15C353.178 15.4 346.978 16.9001 342.778 19.5C338.778 21.9 336.078 26.0998 334.678 32.0996C333.478 38.0996 332.878 46.8002 332.878 58.2002V178.8C332.878 191.2 333.579 200.4 334.979 206.4C336.579 212.4 339.579 216.4 343.979 218.4C348.578 220.4 355.378 221.6 364.378 222V234H257.278V222C266.278 221.6 272.978 220.4 277.378 218.4C281.978 216.4 284.978 212.4 286.378 206.4C287.978 200.4 288.778 191.2 288.778 178.8V58.2002C288.778 46.8002 288.078 38.0996 286.678 32.0996C285.478 26.0999 282.778 21.8999 278.578 19.5C274.578 16.9 268.478 15.4 260.278 15V3H361.378V15ZM461.262 25.2832C461.216 25.6325 461.191 26.0051 461.191 26.4004V181.5C461.191 182.393 461.217 183.269 461.262 184.127V234H385.592V222C394.392 221.6 400.992 220.6 405.392 219C409.992 217.2 413.091 213.9 414.691 209.1C416.291 204.3 417.092 197.2 417.092 187.8V49.2002C417.092 39.8003 416.391 32.8002 414.991 28.2002C413.791 23.4002 411.291 20.0998 407.491 18.2998C403.691 16.4999 397.991 15.4 390.392 15V3H461.262V25.2832ZM504.392 3C523.591 3.00002 541.291 6.00005 557.491 12C573.691 17.8 587.691 26.1004 599.491 36.9004C611.291 47.5004 620.492 60.1002 627.092 74.7002C633.692 89.3001 636.991 105.201 636.991 122.4C636.991 138.8 633.891 153.8 627.691 167.4C621.691 181 612.992 192.8 601.592 202.8C590.392 212.8 577.091 220.5 561.691 225.9C546.291 231.3 529.291 234 510.691 234H474.262V208.599C481.554 213.332 491.896 215.7 505.291 215.7C531.491 215.7 551.592 207.8 565.592 192C579.792 176 586.892 153 586.892 123C586.892 101.6 583.491 83.4003 576.691 68.4004C570.091 53.2004 560.591 41.5996 548.191 33.5996C535.791 25.3997 520.991 21.2998 503.791 21.2998H474.262V3H504.392ZM742.277 71.0977L712.821 146.1H770.691L777.301 164.1H705.921C701.121 174.899 697.521 183.9 695.121 191.1C692.921 198.3 691.821 204 691.821 208.2C691.821 214.2 694.021 218 698.421 219.6C703.021 221.2 709.821 222 718.821 222V234H636.621V222C646.221 221 653.521 218.9 658.521 215.7C663.521 212.3 667.721 206.3 671.121 197.7L710.571 98.8496L732.391 44.1758L742.277 71.0977ZM843.921 175.2C848.121 185.4 851.721 193.5 854.721 199.5C857.721 205.3 860.821 209.7 864.021 212.7C867.221 215.7 870.921 217.8 875.121 219C879.521 220.2 885.121 221.1 891.921 221.7V234H778.521V221.7C788.121 221.3 795.021 220.3 799.221 218.7C803.421 217.1 805.521 213.9 805.521 209.1C805.521 206.3 804.821 202.7 803.421 198.3C802.767 196.151 802.002 193.829 801.13 191.332L801.147 191.326L800.67 190.027C800.058 188.305 799.397 186.504 798.686 184.624L780.465 135.003L780.064 135.149L758.91 79.4131L759.147 79.3262L739.604 26.1035L750.021 0H772.221L843.921 175.2ZM1331.26 22.959C1331.1 23.529 1331.02 24.1761 1331.02 24.9004V111.6C1331.1 111.6 1331.18 111.599 1331.26 111.599V127.5C1331.18 127.5 1331.1 127.5 1331.02 127.5V185.7C1331.02 195.9 1332.02 203.6 1334.02 208.8C1336.02 213.8 1340.12 217.2 1346.32 219C1352.72 220.6 1362.22 221.6 1374.82 222V234H1255.42V222C1264.42 221.6 1271.12 220.6 1275.52 219C1280.12 217.2 1283.12 213.9 1284.52 209.1C1286.12 204.3 1286.92 197.2 1286.92 187.8V49.2002C1286.92 39.8003 1286.22 32.8002 1284.82 28.2002C1283.42 23.4002 1280.72 20.0998 1276.72 18.2998C1272.72 16.4998 1266.72 15.4 1258.72 15V3H1331.26V22.959ZM1569.05 15C1560.05 15.2 1553.35 16.2998 1548.95 18.2998C1544.55 20.0998 1541.55 23.5001 1539.95 28.5C1538.55 33.5 1537.85 41.1 1537.85 51.2998V177C1537.85 180.268 1537.99 183.307 1538.26 186.115V234H1462.25V222C1471.25 221.6 1477.95 220.6 1482.35 219C1486.95 217.2 1489.95 213.9 1491.35 209.1C1492.95 204.3 1493.75 197.2 1493.75 187.8V49.2002C1493.75 39.8003 1493.05 32.8002 1491.65 28.2002C1490.25 23.4002 1487.55 20.0998 1483.55 18.2998C1479.55 16.4998 1473.55 15.4 1465.55 15V3H1569.05V15ZM1668.95 234H1551.26V211.062C1553.65 212.487 1556.38 213.634 1559.45 214.5C1567.45 216.5 1578.35 217.5 1592.15 217.5C1607.55 217.5 1619.75 216.1 1628.75 213.3C1637.95 210.5 1644.95 205.4 1649.75 198C1654.75 190.6 1658.75 179.9 1661.75 165.9H1673.75L1668.95 234ZM1749.04 15C1740.64 15 1734.73 15.8004 1731.33 17.4004C1727.94 19.0003 1726.24 21.3999 1726.24 24.5996C1726.24 26.5996 1726.84 28.9999 1728.04 31.7998C1729.24 34.5998 1731.14 38.4002 1733.74 43.2002L1765.13 103.134L1788.94 149.14V176.7C1788.94 190.1 1789.73 200 1791.33 206.4C1793.13 212.8 1796.23 217 1800.63 219C1805.23 221 1811.73 222 1820.13 222V234H1713.33V222C1721.73 222 1728.14 221 1732.54 219C1737.14 217 1740.33 213 1742.13 207C1743.93 200.8 1744.83 191.4 1744.83 178.8V151.2L1682.74 40.7998C1678.74 33.8001 1675.14 28.5004 1671.94 24.9004C1668.74 21.1005 1665.24 18.4996 1661.44 17.0996C1657.84 15.6996 1653.44 15 1648.24 15V3H1749.04V15ZM1158.8 15C1149 15.2 1141.6 16.3998 1136.6 18.5996C1131.8 20.5996 1128.5 24.5998 1126.7 30.5996C1125.1 36.5996 1124.3 45.8002 1124.3 58.2002V189.921L1100.9 156.437V60.2998C1100.9 47.1 1100.1 37.4002 1098.5 31.2002C1097.1 24.8002 1094.2 20.5996 1089.8 18.5996C1085.4 16.3998 1078.7 15.2 1069.7 15V3H1158.8V15ZM2438.19 15C2428.39 15.2 2420.99 16.3998 2415.99 18.5996C2411.19 20.5996 2407.89 24.5998 2406.09 30.5996C2404.49 36.5996 2403.69 45.8002 2403.69 58.2002V188.642L2380.29 155.156V60.2998C2380.29 47.1 2379.49 37.4002 2377.89 31.2002C2376.49 24.8003 2373.59 20.5997 2369.19 18.5996C2364.79 16.3996 2358.09 15.2 2349.09 15V3H2438.19V15ZM2156.07 15C2146.27 15.2 2138.87 16.3998 2133.87 18.5996C2129.07 20.5996 2125.76 24.5998 2123.96 30.5996C2122.36 36.5996 2121.57 45.8002 2121.57 58.2002V188.612L2098.17 155.127V60.2998C2098.17 47.1 2097.36 37.4002 2095.76 31.2002C2094.36 24.8003 2091.47 20.5997 2087.07 18.5996C2082.67 16.3996 2075.96 15.2 2066.96 15V3H2156.07V15ZM1404.52 166.5H1393.42C1392.22 158.1 1390.42 151.4 1388.02 146.4C1385.82 141.2 1382.52 137.3 1378.12 134.7C1373.72 131.9 1367.72 130 1360.12 129C1355.58 128.403 1350.29 127.986 1344.26 127.745V111.339C1354.15 110.925 1362.13 110.014 1368.22 108.6C1376.82 106.6 1382.92 102.8 1386.52 97.2002C1390.12 91.6002 1392.42 83.3996 1393.42 72.5996H1404.52V166.5ZM1886.74 15C1882.34 15 1878.34 15.8004 1874.74 17.4004C1871.14 18.8004 1867.43 21.5 1863.63 25.5C1859.83 29.2999 1855.44 34.9001 1850.44 42.2998C1845.64 49.6997 1839.74 59.2998 1832.74 71.0996L1795.86 134.238L1784.97 113.197L1815.63 62.0996C1822.23 50.8997 1826.84 42.6002 1829.44 37.2002C1832.04 31.6002 1833.33 27.2 1833.33 24C1833.33 20.6 1831.74 18.2996 1828.54 17.0996C1825.54 15.6997 1819.84 15 1811.44 15V3H1886.74V15ZM1445.92 66.2998H1433.32C1431.72 54.9 1429.02 45.7999 1425.22 39C1421.62 32.2001 1416.02 27.2998 1408.42 24.2998C1401.02 21.2998 1390.82 19.7998 1377.82 19.7998H1344.26V3H1442.32L1445.92 66.2998Z"/>
</svg>
